<svg width="445" height="270" viewBox="0 0 445 270" fill="none" xmlns="http://www.w3.org/2000/svg">
<path d="M314.808 127.794H289.534V174.271C289.534 178.144 290.503 180.974 292.442 182.762C294.38 184.55 297.213 185.592 300.941 185.89C304.669 186.039 309.291 185.965 314.808 185.667V211.81C294.977 214.045 280.96 212.183 272.759 206.224C264.707 200.266 260.681 189.615 260.681 174.271V127.794H241.223V100.086H260.681V77.518L289.534 68.8035V100.086H314.808V127.794ZM410.486 100.086H442.246L399.75 211.81H366.871L324.375 100.086H356.135L383.199 178.293L410.486 100.086Z" fill="#ECECEC"/>
<path d="M142.12 44.2241H53.5864C23.9914 44.2241 0 68.1923 0 97.7586V186.207C0 215.773 23.9914 239.741 53.5864 239.741H142.12C171.715 239.741 195.707 215.773 195.707 186.207V97.7586C195.707 68.1923 171.715 44.2241 142.12 44.2241Z" fill="#ECECEC"/>
<path d="M164.806 158.705C164.806 149.469 157.312 141.983 148.068 141.983C138.823 141.983 131.33 149.469 131.33 158.705V174.14C131.33 183.375 138.823 190.862 148.068 190.862C157.312 190.862 164.806 183.375 164.806 174.14V158.705Z" fill="#111111"/>
<path d="M113.304 158.705C113.304 149.469 105.81 141.983 96.5657 141.983C87.3215 141.983 79.8276 149.469 79.8276 158.705V174.14C79.8276 183.375 87.3215 190.862 96.5657 190.862C105.81 190.862 113.304 183.375 113.304 174.14V158.705Z" fill="#111111"/>
</svg>
